<?xml version="1.0" encoding="utf-8"?>
<!-- Generator: Adobe Illustrator 19.0.0, SVG Export Plug-In . SVG Version: 6.00 Build 0)  -->
<svg version="1.1" baseProfile="tiny" id="Rodella_xA0_Image_1_"
	 xmlns="http://www.w3.org/2000/svg" xmlns:xlink="http://www.w3.org/1999/xlink" x="0px" y="0px" viewBox="-403 194 152.2 174"
	 xml:space="preserve">
<g>
	<g>
		<path d="M-327.5,210.6c29.4,0.2,53.3,23.6,53.2,53.5c-0.1,29.7-23.9,53.1-53.3,53.2c-29.4,0-53.3-23.9-53.2-53.5
			C-380.7,234.2-356.9,210.8-327.5,210.6z M-317.4,250.3c2-1.6,2.5-6.1-0.3-8.2c-1-0.8-2.5-1-3.4-1.9s-1.2-2.4-2-3.3
			c-3.4-4.2-8.1-5.5-13.2-5.9c-3.9-0.3-7.7,0.7-11.3,2c-6.3,2.4-12.8,2.8-19.3,1c-0.9-0.2-1.3,0-1.8,0.7
			c-8.5,12.2-11.3,25.7-8.2,40.2c6.5,30.4,39.9,47.8,68.5,35.8c2.1-0.9,4.1-1.9,6.2-3c-3.2-3.7-5.2-7.7-7-11.8
			c-3.1-6.9-6-13.9-9.3-20.8c-2.2-4.5-4.6-9-7.2-13.2c-2.6-4.2-6.7-6.3-11.5-7c-1.1-0.2-1.3,0.3-1.3,1.3c0,7.4,0,14.9,0,22.3
			c0,1.4,0,2.8,0,4.2c-5.6,0-11.1,0-16.7,0c0-0.5-0.1-0.9-0.1-1.3c0-6.2,0.1-12.4-0.1-18.6c-0.1-4.3,1.7-7.5,5-9.8
			c7-5,14.9-7.6,23.5-7C-323.3,246.2-319.8,247-317.4,250.3z M-363.2,228.2c0,0.1,0.1,0.3,0.1,0.4c0.5,0,1,0,1.4,0
			c13.1,0,26.2,0,39.3,0c4.4,0,8.4,1.3,12,3.6c5.8,3.8,6.5,11.8,3.4,16.2c-2.3,3.3-5.7,4.8-9.6,5.5c-0.8,0.1-1.7,0.3-2.5,0.4
			c0.1,0.2,0.1,0.3,0.2,0.3c0.1,0.1,0.2,0.1,0.3,0.1c5.1,1.3,9.2,4.1,12,8.6c3,4.7,5.3,9.6,7.3,14.7c2.4,6.1,4.7,12.2,7.8,17.9
			c0.3,0.6,0.7,1.2,1.2,2c12-14.3,16.3-30.2,11.1-47.9c-6.1-20.4-20.2-32.7-41.2-36C-336.8,211.4-351.2,216.8-363.2,228.2z"/>
		<g id="eye">
			<path fill="#115106" d="M-332.7,237.4c2.7,0.9,5.5,1.8,8.2,2.7c0,0.2-0.1,0.3-0.1,0.5c-0.1,0-3.3-0.5-3.4-0.2
				c-0.1,0.4-2.7-0.3-2.9-0.5c-0.3-0.3-0.8-0.3-0.9-0.9s-0.7-0.8-1.1-1.3C-332.7,237.6-332.7,237.5-332.7,237.4z"/>
			<path fill="#115106" d="M-324.6,240.6c0,0,1.7,0,0.1-0.5S-324.6,240.6-324.6,240.6z"/>
			<path fill="#115106" d="M-332.9,237.7c0,0-0.4-0.5,0.2-0.3C-332.1,237.6-332.9,237.7-332.9,237.7z"/>
			<path fill="#115106" d="M-331.9,238.9c0,0,0.3,3.2,4.1,1.6S-331.9,238.9-331.9,238.9z"/>
			<polygon fill="#115106" points="-331.7,239.5 -332,238.2 -331.5,238.8 -331.5,239.3 			"/>
		</g>
	</g>
	<g>
		<path d="M-329.3,337.4c0-3.5,0-6.6,0-9.8c0.7,0,1.3,0,2.1,0c0,1.9,0,3.7,0,5.5c0,3.4,0,6.9,0,10.3c0,5.4-4.1,9.1-9.8,8.9
			c-4.9-0.2-8.8-4.8-8.4-9.8c0.3-3.9,2.2-6.7,5.8-8c3.5-1.3,6.8-0.6,9.6,2.2C-329.9,336.8-329.7,337-329.3,337.4z M-336.3,350.3
			c4.1,0,7.2-3.2,7.2-7.4c-0.1-4-3.2-7.2-7.2-7.2c-3.9,0-7.1,3.3-7.1,7.4C-343.3,347.2-340.2,350.3-336.3,350.3z"/>
		<path d="M-270.1,352.3c-0.5,0-0.9,0-1.2,0.1c-0.7,0.1-1-0.2-1-1c0-0.9,0-1.7,0-2.8c-0.3,0.3-0.4,0.3-0.5,0.4c-2.3,3-5.5,3.8-9,3
			c-3.5-0.9-5.6-3.3-6.4-6.8c-1.1-5.2,1.9-10,7-11.1c5.6-1.2,11,3,11.1,8.8C-270.1,346-270.1,349.1-270.1,352.3z M-286.2,343.1
			c-0.1,3.8,2.8,7.2,6.3,7.2c3.5,0.1,7.2-3.3,7.3-6.6c0.1-4.3-2.5-7.6-6.3-7.6C-283,335.9-286.1,338.9-286.2,343.1z"/>
		<path d="M-305.2,343.2c-5.3,0-10.4,0-15.6,0c-0.5,2.5,1.2,5.5,3.7,6.7c3.3,1.5,6.5,0.3,9.6-3.6c0.5,0.3,1.1,0.6,1.6,0.8
			c-1.8,4.2-6.8,6.2-11.5,4.7c-4.2-1.4-6.8-6.3-5.7-11s5.4-7.6,10.3-6.9C-308.3,334.6-304.9,338.7-305.2,343.2z M-320.6,341.3
			c4.4,0,8.7,0,13.1,0c-0.6-3.4-3.4-5.5-7-5.3C-317.7,336.1-320.3,338.3-320.6,341.3z"/>
		<path d="M-358.5,333.9c5.2,0,9.2,4.1,9.2,9.3c0,5.1-4.1,9.1-9.1,9.1c-5.2,0-9.2-4-9.2-9.1C-367.6,338-363.6,334-358.5,333.9z
			 M-351.5,343.2c0-4.1-3.1-7.2-7.1-7.2c-3.8,0-6.9,3.3-6.8,7.3c0,4,3,7,7.1,7C-354.4,350.3-351.5,347.3-351.5,343.2z"/>
		<path d="M-299.1,352.3c-0.8,0-1.4,0-2,0c0-8.1,0-16.1,0-24.1c1.9-0.5,2.1-0.4,2.1,1.5c0,7,0,14-0.1,21
			C-299.1,351.1-299.1,351.6-299.1,352.3z"/>
		<path d="M-292.7,352.3c-0.7,0-1.3,0-1.9,0c0-8.1,0-16.1,0-24.2c2.1-0.4,2.1-0.4,2.1,1.6c0,7.1,0,14.1-0.1,21.2
			C-292.6,351.4-292.6,351.8-292.7,352.3z"/>
		<path d="M-375.1,352.3c-0.8,0-1.4,0-1.9,0c0-3.7-0.3-7.4,0.1-11c0.3-3,2.1-5.3,5-6.5c1.1-0.5,2.2-0.5,3.3,0.2
			c-0.5,0.9-0.8,1.7-2.1,1.7c-1.6,0-3.7,2.5-4,4.6c-0.3,2.2-0.3,4.5-0.4,6.7C-375.2,349.3-375.1,350.7-375.1,352.3z"/>
	</g>
</g>
</svg>
